<?xml version="1.0" encoding="UTF-8" standalone="no"?>
<svg
   height="48"
   width="48"
   version="1.1"
   id="svg4"
   sodipodi:docname="radio_button_checked_hover_FILL0_wght400_GRAD0_opsz48.svg"
   inkscape:version="1.2.1 (9c6d41e410, 2022-07-14)"
   xmlns:inkscape="http://www.inkscape.org/namespaces/inkscape"
   xmlns:sodipodi="http://sodipodi.sourceforge.net/DTD/sodipodi-0.dtd"
   xmlns="http://www.w3.org/2000/svg"
   xmlns:svg="http://www.w3.org/2000/svg">
  <defs
     id="defs8" />
  <sodipodi:namedview
     id="namedview6"
     pagecolor="#ffffff"
     bordercolor="#666666"
     borderopacity="1.0"
     inkscape:showpageshadow="2"
     inkscape:pageopacity="0.0"
     inkscape:pagecheckerboard="0"
     inkscape:deskcolor="#d1d1d1"
     showgrid="false"
     inkscape:zoom="4.9166667"
     inkscape:cx="-8.6440678"
     inkscape:cy="24"
     inkscape:window-width="2560"
     inkscape:window-height="1346"
     inkscape:window-x="-11"
     inkscape:window-y="267"
     inkscape:window-maximized="1"
     inkscape:current-layer="svg4" />
  <path
     style="fill:#0078d7;fill-opacity:1"
     d="M 24,24 Z"
     id="path855" />
  <path
     style="fill:#0078d7;fill-opacity:1"
     d="M 24,44 Q 19.9,44 16.25,42.425 12.6,40.85 9.875,38.125 7.15,35.4 5.575,31.75 4,28.1 4,24 4,19.85 5.575,16.2 7.15,12.55 9.875,9.85 12.6,7.15 16.25,5.575 19.9,4 24,4 q 4.15,0 7.8,1.575 3.65,1.575 6.35,4.275 2.7,2.7 4.275,6.35 Q 44,19.85 44,24 q 0,4.1 -1.575,7.75 -1.575,3.65 -4.275,6.375 -2.7,2.725 -6.35,4.3 Q 28.15,44 24,44 Z"
     id="path851" />
  <path
     style="fill:#fefeff;fill-opacity:1"
     d="M 24,41 Q 31.1,41 36.05,36.025 41,31.05 41,24 41,16.9 36.05,11.95 31.1,7 24,7 16.95,7 11.975,11.95 7,16.9 7,24 7,31.05 11.975,36.025 16.95,41 24,41 Z"
     id="path853" />
  <path
     style="fill:#0078d7;fill-opacity:1"
     d="m 24,33.3 q 3.9,0 6.6,-2.7 2.7,-2.7 2.7,-6.6 0,-3.9 -2.7,-6.6 -2.7,-2.7 -6.6,-2.7 -3.9,0 -6.6,2.7 -2.7,2.7 -2.7,6.6 0,3.9 2.7,6.6 2.7,2.7 6.6,2.7 z"
     id="path2" />
</svg>
